<?xml version="1.0" standalone="no"?>
<!DOCTYPE svg PUBLIC "-//W3C//DTD SVG 20010904//EN"
 "http://www.w3.org/TR/2001/REC-SVG-20010904/DTD/svg10.dtd">
<svg version="1.0" xmlns="http://www.w3.org/2000/svg"
 width="1024.000000pt" height="1024.000000pt" viewBox="0 0 1024.000000 1024.000000"
 preserveAspectRatio="xMidYMid meet">
<metadata>
Created by potrace 1.14, written by Peter Selinger 2001-2017
</metadata>
<g transform="translate(0.000000,1024.000000) scale(0.100000,-0.100000)"
fill="#000000" stroke="none">
<path d="M0 5120 l0 -5120 5120 0 5120 0 0 5120 0 5120 -5120 0 -5120 0 0
-5120z m5455 4140 c3 -5 -1 -10 -10 -10 -9 0 -13 5 -10 10 3 6 8 10 10 10 2 0
7 -4 10 -10z m75 -12 c0 -4 23 -7 51 -6 29 0 54 -5 58 -10 3 -6 13 -10 21 -10
43 3 73 -3 64 -12 -11 -11 -171 13 -204 30 -12 6 -28 9 -36 6 -8 -3 -12 -1 -9
4 7 11 55 10 55 -2z m-483 -13 c0 -8 -5 -16 -11 -17 -6 0 -15 -2 -21 -3 -5 -2
-36 -3 -68 -4 -41 -1 -56 -4 -51 -13 4 -7 3 -8 -4 -4 -18 11 -3 34 19 29 10
-3 19 0 19 6 0 6 7 11 16 11 8 0 12 -4 9 -10 -3 -5 1 -10 9 -10 8 0 18 5 21
10 4 7 12 7 25 0 13 -7 19 -6 24 5 7 19 13 19 13 0z m226 -10 c-3 -5 0 -4 8 3
7 6 36 12 64 12 69 0 205 -21 205 -32 0 -5 -10 -9 -22 -8 -36 3 -52 1 -45 -7
4 -3 24 -8 44 -9 21 -2 57 -5 80 -7 23 -2 40 0 37 5 -3 5 -11 5 -17 2 -9 -5
-9 -4 -1 5 8 9 23 10 50 4 22 -4 44 -8 49 -8 6 0 12 -3 15 -6 10 -11 62 -20
55 -9 -3 5 1 10 10 10 9 0 14 -4 11 -8 -3 -5 13 -13 34 -19 22 -5 37 -6 34 -2
-3 5 0 9 5 9 6 0 11 -5 11 -11 0 -7 10 -9 26 -6 18 3 24 1 20 -9 -5 -12 40
-26 121 -37 39 -6 36 -15 -4 -11 -29 3 -33 2 -17 -5 12 -5 34 -12 50 -14 33
-6 158 -50 221 -78 23 -11 49 -19 58 -19 9 0 28 -12 42 -27 15 -16 23 -22 19
-15 -10 17 -5 16 78 -23 41 -19 78 -35 81 -35 4 0 13 -7 21 -15 9 -8 24 -15
35 -15 10 0 19 -4 19 -10 0 -5 7 -10 15 -10 9 0 18 -6 21 -14 3 -8 19 -18 35
-21 16 -4 29 -10 29 -15 0 -4 12 -11 28 -15 15 -5 34 -10 42 -12 8 -3 25 -4
37 -4 12 0 31 -12 45 -29 22 -28 47 -43 32 -19 -4 7 7 4 24 -7 17 -10 29 -20
27 -23 -3 -2 -11 1 -17 7 -14 14 -28 16 -28 3 0 -5 15 -13 33 -16 39 -9 69
-29 59 -40 -4 -5 -2 -5 5 -2 14 9 45 -2 38 -13 -7 -11 22 -33 33 -26 13 8 34
-18 24 -29 -4 -5 1 -5 11 -2 15 6 16 4 6 -14 -10 -19 -9 -20 12 -9 13 8 24 8
28 3 3 -6 16 -15 29 -22 13 -7 20 -17 16 -24 -4 -7 -4 -9 1 -5 12 12 63 -30
60 -50 -1 -9 0 -11 2 -4 6 16 22 15 29 -2 3 -8 12 -12 20 -9 8 3 14 1 14 -4 0
-5 15 -17 33 -28 17 -10 37 -24 43 -29 7 -6 24 -20 40 -31 15 -11 65 -50 110
-87 45 -36 85 -64 88 -60 4 3 24 -12 46 -34 21 -21 61 -61 89 -88 28 -27 48
-53 44 -60 -3 -6 -3 -8 2 -4 12 11 38 -21 31 -38 -3 -8 0 -14 7 -13 27 3 37
-2 37 -19 0 -10 9 -24 20 -32 14 -10 16 -16 7 -22 -8 -5 -6 -8 6 -8 10 0 15
-5 12 -10 -3 -6 0 -17 9 -25 36 -36 147 -215 140 -226 -4 -7 -3 -9 3 -6 6 4
21 -15 34 -41 13 -26 45 -72 71 -103 38 -44 45 -58 35 -69 -8 -8 -8 -11 -1 -7
7 4 18 -1 25 -10 10 -12 10 -14 2 -9 -7 4 -13 3 -13 -3 0 -5 3 -11 8 -13 12
-5 92 -129 92 -143 0 -8 4 -17 10 -20 6 -4 7 1 4 12 -5 15 -4 15 5 3 5 -8 13
-32 16 -52 7 -38 18 -49 29 -25 3 6 3 1 0 -12 -4 -16 -2 -21 5 -17 7 5 9 1 5
-8 -4 -9 -1 -16 6 -16 8 0 11 -10 7 -27 -3 -18 2 -39 14 -58 10 -16 28 -50 39
-75 51 -107 58 -119 64 -113 4 4 4 0 1 -9 -3 -8 1 -33 10 -54 9 -22 18 -43 19
-49 7 -24 20 -51 35 -69 9 -11 10 -16 4 -12 -18 10 -17 6 17 -62 17 -34 30
-69 31 -79 1 -13 3 -11 9 7 8 22 8 21 7 -10 0 -19 9 -62 22 -94 12 -32 20 -68
19 -80 -2 -12 2 -20 9 -19 7 2 10 -7 7 -23 -3 -15 2 -37 12 -51 9 -14 11 -22
5 -19 -18 12 -12 -6 12 -33 12 -14 14 -19 5 -12 -15 11 -18 11 -18 -2 0 -9 8
-21 18 -26 9 -6 11 -11 5 -11 -15 0 -18 -30 -3 -30 5 0 8 -12 6 -27 -2 -16 2
-67 9 -115 6 -47 11 -96 10 -107 -2 -22 11 -29 17 -11 2 6 4 -10 4 -36 1 -29
-2 -41 -7 -33 -5 8 -9 9 -9 4 0 -6 5 -16 10 -21 6 -6 11 -51 13 -101 1 -50 5
-89 10 -86 7 4 12 -23 7 -42 -4 -17 -3 -29 4 -52 6 -19 4 -23 -14 -23 -21 0
-21 0 -2 -21 21 -22 26 -69 8 -69 -6 0 -4 -5 4 -10 8 -5 10 -10 4 -10 -14 0
-14 -30 0 -30 6 0 5 -4 -2 -9 -13 -8 -13 -46 1 -68 5 -7 4 -13 -1 -13 -10 0
-9 -51 2 -68 3 -6 -1 -8 -13 -5 -12 3 -17 12 -16 26 1 12 3 22 4 22 2 0 3 26
4 58 2 54 -5 73 -16 44 -3 -8 -1 -20 3 -27 5 -8 5 -21 0 -29 -10 -19 -10 -20
-11 -68 -1 -33 -2 -35 -8 -13 -4 14 -7 44 -6 68 1 23 -2 39 -6 35 -4 -5 -9
-84 -12 -178 -6 -170 -20 -273 -55 -417 -11 -43 -16 -78 -11 -78 4 0 10 6 12
13 3 7 6 5 6 -5 1 -11 -6 -18 -19 -18 -18 0 -30 -33 -28 -80 0 -19 -31 -138
-42 -159 -20 -37 -38 -99 -32 -105 3 -4 0 -11 -7 -15 -7 -5 -9 -11 -4 -14 6
-4 20 7 32 23 12 17 17 30 11 30 -6 0 -4 7 4 16 9 8 14 19 12 22 -2 4 2 13 10
20 17 16 17 10 2 -39 -6 -22 -15 -39 -20 -39 -5 0 -7 -4 -3 -9 3 -6 -6 -34
-20 -62 -14 -29 -25 -59 -25 -66 0 -7 -4 -13 -10 -13 -5 0 -10 -7 -10 -15 0
-14 -47 -125 -72 -170 -7 -11 -17 -30 -23 -42 -7 -13 -16 -19 -20 -15 -5 4 -5
2 -2 -4 10 -17 -21 -86 -34 -78 -7 4 -9 -1 -4 -15 4 -14 1 -23 -9 -27 -9 -3
-16 -15 -16 -26 0 -12 -4 -17 -12 -12 -7 4 -8 3 -4 -4 8 -13 -23 -72 -37 -72
-4 0 -5 -5 -2 -10 4 -6 -3 -25 -14 -44 -12 -18 -21 -39 -21 -45 0 -11 -49 -91
-62 -101 -3 -3 -8 -12 -10 -19 -2 -8 -10 -22 -18 -31 -23 -26 -55 -72 -55 -79
0 -4 -17 -24 -37 -45 -21 -22 -38 -45 -38 -51 0 -7 -9 -15 -20 -18 -11 -3 -19
-11 -18 -19 2 -7 -3 -12 -9 -11 -7 2 -14 -2 -14 -7 -3 -20 -4 -25 -13 -39 -6
-10 -5 -12 2 -7 16 10 15 -2 0 -19 -30 -31 -46 -54 -41 -58 8 -9 -59 -87 -69
-81 -5 3 -8 2 -7 -3 4 -22 -2 -35 -15 -30 -11 4 -13 1 -9 -10 4 -11 2 -14 -5
-9 -7 4 -12 1 -12 -7 0 -16 -46 -58 -54 -50 -3 4 -6 -1 -6 -9 0 -9 -7 -19 -16
-22 -9 -3 -12 -11 -8 -18 4 -7 4 -10 -1 -6 -7 7 -35 -14 -35 -27 0 -11 -48
-54 -54 -48 -3 4 -6 -1 -6 -9 0 -14 -140 -150 -191 -186 -12 -8 -38 -29 -58
-47 -130 -117 -177 -155 -189 -150 -7 2 -11 1 -8 -4 8 -13 -21 -34 -35 -25 -8
5 -9 3 -4 -6 6 -10 4 -12 -8 -7 -11 4 -14 2 -10 -9 3 -7 0 -14 -6 -14 -9 0
-87 -49 -209 -131 -23 -16 -47 -29 -52 -29 -6 0 -10 -4 -10 -8 0 -5 -15 -16
-34 -25 -29 -13 -100 -61 -143 -97 -7 -6 -49 -29 -93 -51 -44 -22 -80 -42 -80
-44 0 -6 28 5 87 36 29 14 49 21 46 15 -4 -6 -8 -17 -8 -23 0 -13 -75 -56 -75
-44 0 4 12 13 26 20 15 6 24 14 21 17 -6 6 -87 -33 -87 -42 0 -3 8 -3 18 0 14
5 13 3 -3 -9 -11 -9 -30 -18 -42 -22 -13 -3 -23 -10 -23 -15 0 -6 -7 -8 -15
-4 -8 3 -21 -1 -29 -9 -8 -8 -20 -15 -26 -15 -7 0 -24 -6 -38 -13 -15 -8 -47
-23 -72 -34 -25 -12 -57 -27 -72 -34 -16 -7 -31 -10 -34 -6 -4 3 -13 0 -21 -8
-8 -8 -26 -18 -41 -21 -15 -3 -34 -8 -42 -11 -8 -4 -17 -7 -20 -8 -11 -4 -47
-18 -86 -35 -23 -10 -57 -22 -75 -26 -44 -10 -39 -9 -79 -26 -19 -9 -38 -14
-42 -12 -4 3 -17 0 -27 -6 -11 -6 -33 -12 -48 -15 -15 -2 -48 -9 -73 -15 -24
-6 -54 -9 -67 -6 -12 4 -25 2 -28 -4 -3 -5 -23 -10 -44 -10 -20 0 -43 -6 -49
-12 -10 -10 -15 -10 -22 2 -8 11 -12 12 -18 3 -4 -7 -37 -14 -72 -16 -36 -3
-55 -3 -42 0 12 2 22 11 22 19 0 17 -20 19 -21 2 0 -9 -2 -9 -5 -2 -3 6 -17
10 -32 8 -24 -3 -23 -2 6 8 33 11 47 34 14 24 -10 -3 -60 -7 -112 -8 -52 -1
-101 -6 -109 -12 -9 -6 -12 -7 -9 -1 4 6 -45 11 -135 13 -78 1 -170 7 -203 12
-34 6 -76 7 -93 4 -20 -4 -31 -3 -31 5 0 6 -4 11 -10 11 -5 0 -10 -7 -10 -15
0 -9 9 -15 22 -15 21 0 21 0 2 -15 -22 -17 -74 -20 -74 -4 0 11 -16 9 -51 -5
-9 -4 -23 -1 -30 6 -8 7 -27 13 -44 14 -63 2 -420 111 -542 165 -23 10 -63 28
-88 39 -25 11 -50 20 -55 20 -6 0 -8 5 -4 12 4 6 3 8 -4 4 -13 -8 -92 22 -92
36 0 5 -4 7 -9 3 -5 -3 -15 0 -23 7 -7 7 -20 14 -28 16 -8 2 -17 8 -18 13 -2
5 -8 7 -13 3 -5 -3 -9 2 -9 10 0 9 -6 13 -14 10 -8 -3 -19 3 -25 15 -7 12 -17
18 -26 15 -10 -4 -15 0 -15 12 0 16 -2 17 -10 4 -8 -11 -9 -7 -4 15 7 28 6 29
-10 16 -9 -8 -16 -10 -15 -5 3 20 -2 32 -17 38 -14 5 -15 4 -4 -9 7 -9 10 -18
6 -22 -3 -3 -6 -1 -6 6 0 8 -7 11 -15 7 -9 -3 -15 0 -15 8 0 8 -12 22 -27 31
-48 30 -63 51 -50 65 10 10 8 12 -6 7 -11 -4 -16 -3 -12 4 9 13 -25 40 -42 34
-7 -2 -19 2 -27 10 -7 8 -18 11 -22 7 -5 -4 -6 -3 -2 2 4 5 0 15 -10 23 -16
14 -16 14 1 9 52 -18 52 -18 32 -5 -11 7 -24 18 -28 26 -5 7 -12 11 -18 8 -5
-4 -9 1 -9 10 0 17 11 14 41 -12 9 -7 23 -11 32 -7 15 5 14 8 -6 24 -12 10
-19 21 -16 25 4 3 14 -1 23 -10 9 -9 16 -12 16 -6 0 6 7 7 17 4 10 -4 14 -2 9
5 -7 11 75 -30 109 -56 11 -8 3 1 -17 22 -44 42 -46 46 -18 41 11 -2 20 0 20
5 0 11 91 7 109 -4 6 -4 11 -3 11 2 0 5 13 12 30 14 16 3 30 2 30 -1 0 -3 84
-6 187 -6 171 0 254 -3 623 -21 411 -20 1197 -26 1390 -10 100 9 321 17 605
22 154 2 282 5 285 5 3 1 19 2 35 4 17 1 49 5 73 9 29 4 41 2 36 -5 -4 -7 1
-7 15 0 24 13 41 7 41 -15 0 -14 4 -14 66 0 11 2 37 11 57 19 20 9 39 12 42 7
3 -5 27 5 53 23 84 56 107 101 36 71 -20 -8 -33 -10 -29 -5 3 6 -2 11 -12 12
-14 0 -15 2 -3 6 31 12 39 42 11 40 -11 0 -17 -5 -15 -9 3 -4 3 -8 0 -8 -2 0
-12 -3 -22 -7 -12 -4 -15 -3 -10 5 5 9 0 9 -19 2 -35 -13 -38 -13 -31 6 5 13
2 14 -11 8 -21 -9 -37 -8 -158 6 -49 6 -135 13 -190 15 -55 2 -125 7 -155 11
-30 4 -86 8 -125 9 -359 15 -596 20 -851 20 -328 0 -334 -1 -334 -56 0 -30
-23 -49 -58 -49 -34 0 -49 31 -55 117 -9 116 -23 168 -94 332 -5 10 -2 12 7 6
9 -5 11 -4 6 4 -4 6 -11 9 -16 6 -9 -6 -43 43 -43 62 0 7 -3 10 -7 8 -8 -5
-50 40 -50 53 0 5 -18 21 -40 38 -22 16 -38 35 -35 42 3 7 0 10 -5 7 -6 -3
-13 1 -16 10 -4 9 -13 14 -20 11 -8 -3 -11 0 -7 10 4 10 1 14 -8 12 -8 -1 -52
22 -99 53 -114 75 -140 90 -140 85 0 -2 51 -38 113 -79 109 -72 220 -171 283
-252 36 -47 74 -124 103 -212 22 -66 46 -211 37 -221 -3 -3 -6 2 -6 10 0 10
-8 14 -22 12 -13 -2 -198 -6 -413 -9 -407 -6 -546 -10 -655 -19 -110 -10 -292
-20 -352 -21 -32 0 -58 -3 -58 -6 0 -4 -33 -6 -74 -5 -41 1 -73 -1 -71 -4 7
-11 -121 -4 -142 8 -12 7 -24 8 -27 3 -3 -5 -15 -7 -26 -4 -16 4 -19 2 -14
-12 8 -19 -59 22 -158 99 l-63 49 64 -60 c49 -46 60 -61 48 -66 -17 -7 -41 15
-29 28 4 4 -4 2 -17 -5 -28 -14 -71 0 -71 25 0 8 -5 15 -11 15 -5 0 -7 -6 -3
-12 4 -8 3 -10 -2 -5 -5 5 -9 12 -9 16 0 4 -18 23 -40 42 -22 19 -46 42 -53
51 -7 9 -19 15 -28 11 -11 -4 -12 -8 -3 -19 10 -12 9 -13 -4 -8 -9 3 -19 14
-22 25 -3 10 -17 27 -31 38 -15 12 -20 21 -12 23 18 6 -1 28 -38 44 -19 8 -34
21 -34 29 0 8 -5 15 -10 15 -6 0 -9 4 -8 9 2 5 -8 19 -22 31 -74 64 -128 119
-123 123 2 3 -5 11 -17 17 -13 7 -19 17 -16 26 3 8 2 13 -3 9 -9 -5 -81 58
-81 72 0 3 11 -4 25 -17 14 -13 25 -20 25 -17 0 12 -43 56 -50 52 -4 -3 -14 3
-21 13 -13 15 -12 16 4 3 37 -29 15 7 -33 53 -28 27 -50 53 -50 58 0 6 -18 28
-40 51 -22 22 -38 42 -35 45 2 3 -9 21 -26 41 -16 20 -34 42 -40 49 -6 7 -8
16 -5 19 8 8 -14 34 -24 28 -4 -3 -14 3 -21 13 -13 15 -12 16 4 3 17 -13 18
-12 11 14 -10 42 -42 92 -62 99 -15 5 -15 5 -1 -6 9 -7 24 -29 33 -48 l17 -35
-21 28 c-12 15 -27 24 -32 21 -6 -4 -8 -2 -5 4 7 10 -20 71 -36 83 -5 3 -8 8
-7 10 3 9 -30 78 -41 84 -5 4 -8 14 -5 22 3 8 1 11 -4 8 -5 -3 -15 7 -21 22
-6 15 -15 35 -20 43 -5 8 -14 27 -20 43 -6 15 -15 27 -20 27 -5 0 -9 7 -9 15
0 8 -4 15 -10 15 -5 0 -10 10 -10 23 0 13 -13 36 -29 51 -21 20 -29 38 -29 58
1 17 -4 33 -11 38 -7 4 -11 9 -10 11 7 10 -22 70 -31 64 -5 -3 -7 0 -4 9 3 8
-2 28 -11 45 -8 17 -13 31 -10 31 2 0 -5 18 -16 40 -12 22 -18 47 -15 56 3 8
2 13 -3 10 -7 -5 -22 27 -25 56 -1 3 -4 10 -8 14 -5 4 -8 18 -8 30 0 13 -5 26
-11 30 -8 4 -8 9 0 17 15 15 14 27 -4 27 -11 0 -14 7 -11 25 3 14 1 25 -4 25
-4 0 -6 8 -3 19 3 10 -3 33 -11 50 -26 49 -37 83 -26 76 6 -3 10 -2 10 4 0 5
-8 15 -18 20 -12 8 -14 13 -6 18 11 7 11 30 0 78 -2 11 -5 20 -6 20 -3 0 -13
51 -14 73 -1 12 -4 22 -7 22 -4 0 -9 9 -12 20 -3 12 -1 18 5 14 6 -4 8 1 5 12
-12 39 -18 92 -20 176 -1 47 -5 84 -8 82 -13 -8 -18 40 -6 55 8 9 8 12 1 8
-12 -7 -14 27 -19 273 -2 58 -4 105 -4 105 -1 0 -3 19 -5 42 -1 23 0 40 3 38
3 -2 7 8 7 21 1 16 -2 21 -10 17 -6 -4 -3 5 7 20 9 15 13 27 7 27 -8 0 -7 6 0
20 8 15 8 20 -2 21 -10 0 -10 2 0 6 6 2 12 9 12 14 0 6 -4 8 -9 4 -5 -3 -8 9
-6 27 2 18 4 33 5 33 1 0 3 18 6 40 7 69 34 190 44 193 5 2 6 10 3 19 -4 9 1
21 12 29 12 9 14 14 5 14 -9 0 -8 5 5 20 9 10 15 26 12 35 -4 8 -2 15 4 15 6
0 7 5 4 10 -3 6 0 10 7 10 10 0 11 2 0 8 -13 9 -7 42 8 42 4 0 5 11 2 25 -3
16 0 25 8 25 7 0 10 -7 6 -16 -3 -8 -2 -12 4 -9 6 3 7 17 4 31 -5 18 -2 24 11
24 9 0 13 5 9 11 -3 6 0 15 7 20 11 6 11 9 1 9 -9 0 -8 7 4 26 9 14 23 23 29
20 7 -2 15 4 18 15 4 16 3 18 -8 9 -8 -7 -20 -10 -27 -7 -9 4 -7 6 4 6 9 1 20
10 23 22 4 13 12 18 21 15 8 -3 13 -2 10 2 -3 5 6 31 20 58 14 27 24 49 23 49
-5 0 75 161 82 163 4 2 6 9 3 16 -3 7 2 19 11 26 8 7 15 19 15 26 0 8 3 14 8
14 4 0 12 15 18 33 23 65 39 102 48 108 5 4 6 12 2 18 -5 7 -1 9 8 5 9 -3 16
-11 16 -18 1 -6 8 1 16 17 8 15 17 27 20 27 3 0 2 -5 -2 -12 -4 -7 -3 -8 4 -4
7 4 12 21 12 37 0 17 6 32 15 35 8 4 15 12 15 20 0 8 5 14 11 14 6 0 8 7 5 17
-4 10 -4 14 0 10 4 -4 12 2 18 12 6 11 22 34 36 53 13 18 17 28 9 21 -10 -8
-19 -9 -29 -2 -13 9 -13 10 0 6 18 -4 40 16 40 36 0 8 8 21 17 28 14 12 16 12
9 -1 -4 -8 1 -5 10 8 9 12 23 22 31 22 10 0 13 6 9 16 -3 8 -2 13 3 10 5 -3
11 4 14 17 2 12 8 31 12 41 7 15 5 17 -6 11 -12 -7 -12 -6 0 6 10 10 15 11 18
2 2 -7 11 -9 19 -6 13 5 13 7 2 14 -10 7 -11 9 0 9 7 0 10 5 7 10 -4 6 -12 7
-18 4 -7 -4 -8 -3 -4 1 12 14 37 15 38 2 0 -7 4 -3 9 8 14 32 11 39 -7 24 -19
-14 1 11 47 61 24 26 18 7 -8 -22 -8 -10 -11 -18 -6 -18 9 0 54 61 54 74 0 4
-5 4 -12 0 -7 -4 -8 -3 -4 5 4 6 11 9 16 6 5 -3 15 4 24 16 8 12 19 18 25 15
6 -4 9 -1 6 6 -7 19 140 188 164 188 6 0 14 7 17 15 9 22 60 75 73 75 5 0 9
12 8 28 -2 23 2 27 21 26 17 -1 20 2 13 9 -12 12 23 57 46 57 7 0 13 6 13 13
0 12 19 29 109 97 25 20 46 41 46 47 0 6 4 15 9 20 5 5 6 3 2 -4 -4 -8 -1 -13
7 -13 8 0 17 7 21 15 3 8 0 15 -6 15 -7 0 -6 5 2 15 15 18 34 20 24 3 -4 -7 5
-2 19 11 15 14 27 28 27 33 0 13 -38 3 -60 -17 -35 -32 -22 -10 17 26 20 18
32 28 28 20 -6 -11 -4 -13 9 -8 10 4 15 3 11 -3 -21 -34 77 40 178 135 15 14
27 23 27 20 0 -3 15 9 33 28 19 18 50 41 71 51 20 9 34 21 31 26 -7 11 54 72
66 64 5 -3 9 -3 9 0 0 2 3 11 6 20 4 10 1 16 -9 16 -9 0 -18 -8 -21 -17 -3
-10 -17 -23 -30 -29 -20 -9 -23 -8 -19 7 3 10 11 15 19 12 8 -3 14 1 14 8 1
16 83 69 106 69 8 0 13 3 11 8 -6 9 14 26 33 30 10 1 8 -3 -4 -13 -11 -8 -16
-15 -10 -15 5 0 2 -4 -6 -10 -8 -5 -12 -11 -9 -14 3 -3 17 6 31 19 14 13 38
27 52 31 14 3 30 12 37 20 8 10 3 9 -21 -2 -23 -12 -35 -13 -43 -5 -8 8 -6 11
8 12 11 1 24 1 28 0 4 -1 10 6 13 14 4 8 12 15 20 15 7 0 18 8 23 19 6 10 18
21 28 25 15 5 15 4 -1 -9 -11 -8 -16 -15 -10 -15 14 1 44 26 38 32 -3 4 -1 9
5 13 6 3 11 1 11 -6 0 -8 5 -6 13 5 7 9 17 17 22 16 6 -2 17 -2 25 -1 13 1 13
2 0 11 -13 9 -13 10 0 11 8 1 20 2 25 4 6 1 18 3 28 3 10 1 16 6 13 11 -3 4 5
7 19 6 13 -2 26 3 29 12 3 8 11 11 17 8 5 -4 16 0 22 10 11 14 28 21 60 24 4
1 7 8 7 16 0 8 8 15 18 15 13 0 14 -2 3 -9 -8 -5 -9 -11 -3 -15 6 -3 14 3 17
15 5 15 10 18 15 10 5 -10 10 -9 21 2 8 7 20 12 28 9 9 -3 11 0 6 8 -6 9 0 12
23 8 19 -3 29 -1 25 6 -4 5 1 7 10 3 9 -3 19 -2 23 4 3 6 12 8 19 5 8 -3 15
-1 17 3 2 4 19 11 38 15 32 6 33 5 15 -9 -18 -13 -17 -14 15 -3 19 6 29 13 22
16 -7 2 -9 8 -6 13 4 6 11 6 19 -1 16 -13 39 -4 30 11 -8 12 37 12 70 -1 17
-7 24 -7 20 0 -5 9 60 16 89 11 22 -5 56 10 50 21 -5 7 -3 8 7 2 17 -10 59 -6
76 8 7 5 22 7 34 3 12 -4 19 -3 16 2 -3 5 25 10 61 11 37 2 74 5 83 8 23 6
153 13 267 14 108 0 126 15 20 17 -40 1 -86 2 -103 3 -27 2 -28 3 -7 8 40 12
201 9 195 -3z m-433 -10 c0 -8 -7 -15 -15 -15 -13 0 -14 3 -3 15 16 18 18 18
18 0z m35 5 c-3 -5 -12 -10 -18 -10 -7 0 -6 4 3 10 19 12 23 12 15 0z m-75
-20 c0 -5 -4 -10 -10 -10 -5 0 -10 5 -10 10 0 6 5 10 10 10 6 0 10 -4 10 -10z
m816 -3 c4 -4 -9 -7 -30 -7 -23 0 -35 4 -31 10 7 11 49 9 61 -3z m174 9 c0 -2
-7 -7 -16 -10 -8 -3 -12 -2 -9 4 6 10 25 14 25 6z m-1140 -16 c0 -5 -7 -7 -15
-4 -8 4 -15 8 -15 10 0 2 7 4 15 4 8 0 15 -4 15 -10z m1340 -26 c0 -2 -9 -4
-20 -4 -11 0 -20 4 -20 9 0 5 9 7 20 4 11 -3 20 -7 20 -9z m-1433 -10 c-3 -3
-12 -4 -19 -1 -8 3 -5 6 6 6 11 1 17 -2 13 -5z m1538 -32 c-3 -3 -11 0 -18 7
-9 10 -8 11 6 5 10 -3 15 -9 12 -12z m90 -10 c-3 -3 -11 0 -18 7 -9 10 -8 11
6 5 10 -3 15 -9 12 -12z m-28 -27 c0 -8 -4 -12 -9 -9 -5 3 -6 10 -3 15 9 13
12 11 12 -6z m91 -15 c-2 -6 -11 -4 -23 5 -17 14 -17 16 -2 11 9 -3 17 0 18 7
0 9 2 9 6 0 2 -7 3 -18 1 -23z m32 -10 c0 -5 -2 -10 -4 -10 -3 0 -8 5 -11 10
-3 6 -1 10 4 10 6 0 11 -4 11 -10z m23 -20 c3 -11 1 -18 -4 -14 -5 3 -9 12 -9
20 0 20 7 17 13 -6z m37 -18 c0 -15 -2 -15 -10 -2 -13 20 -13 33 0 25 6 -3 10
-14 10 -23z m28 14 c-7 -8 -15 -12 -17 -11 -5 6 10 25 20 25 5 0 4 -6 -3 -14z
m73 -47 c4 -6 12 -8 18 -5 6 4 11 3 11 -3 0 -22 -24 -22 -41 0 -10 13 -19 18
-19 11 0 -7 -4 -10 -10 -7 -5 3 -10 10 -10 15 0 12 42 3 51 -11z m89 -40 c0
-5 4 -9 10 -9 5 0 6 8 3 18 -7 16 -6 16 11 -1 10 -9 21 -15 26 -12 4 3 6 -5 2
-17 -4 -16 -2 -19 9 -13 12 7 12 5 1 -6 -11 -12 -14 -12 -22 1 -5 8 -10 11
-10 7 0 -5 -7 -1 -16 7 -8 9 -24 16 -34 16 -19 0 -33 13 -24 23 8 7 44 -4 44
-14z m120 -51 c0 -26 -34 -13 -36 14 -1 14 2 15 17 5 11 -7 19 -15 19 -19z
m37 -24 c-3 -3 -12 -4 -19 -1 -8 3 -5 6 6 6 11 1 17 -2 13 -5z m223 -99 c7 -9
8 -15 2 -15 -5 0 -12 7 -16 15 -3 8 -4 15 -2 15 2 0 9 -7 16 -15z m-3542 -156
c10 -13 10 -18 0 -22 -8 -3 -14 5 -14 20 -1 13 -1 23 0 21 1 -2 7 -10 14 -19z
m-207 -156 c13 -16 12 -17 -3 -4 -10 7 -18 15 -18 17 0 8 8 3 21 -13z m-66
-91 c-3 -3 -11 0 -18 7 -9 10 -8 11 6 5 10 -3 15 -9 12 -12z m-155 -116 c0 -2
-7 -7 -16 -10 -8 -3 -12 -2 -9 4 6 10 25 14 25 6z m4740 -50 c22 -27 -5 -17
-31 10 -21 24 -22 26 -3 16 11 -6 26 -18 34 -26z m-4760 -6 c0 -5 -5 -10 -11
-10 -5 0 -7 5 -4 10 3 6 8 10 11 10 2 0 4 -4 4 -10z m-785 -820 c3 -5 1 -10
-4 -10 -6 0 -11 5 -11 10 0 6 2 10 4 10 3 0 8 -4 11 -10z m-24 -43 c-10 -9
-11 -8 -5 6 3 10 9 15 12 12 3 -3 0 -11 -7 -18z m-8 -52 c-3 -9 -8 -14 -10
-11 -3 3 -2 9 2 15 9 16 15 13 8 -4z m-148 -225 c-9 -14 8 -12 25 3 8 6 6 2
-5 -11 -13 -16 -21 -19 -26 -10 -7 12 -3 28 7 28 3 0 2 -4 -1 -10z m6565 -82
c0 -6 -7 -5 -15 2 -8 7 -15 17 -15 22 0 6 7 5 15 -2 8 -7 15 -17 15 -22z
m-6768 -300 c-6 -6 -7 0 -4 19 5 21 7 23 10 9 2 -10 0 -22 -6 -28z m-17 -40
c-13 -42 -37 -88 -46 -88 -5 0 -2 14 6 30 9 17 13 36 9 42 -4 6 -3 8 3 5 6 -4
13 2 16 13 3 11 8 20 12 20 3 0 3 -10 0 -22z m-45 -113 c0 -8 -4 -15 -10 -15
-5 0 -7 7 -4 15 4 8 8 15 10 15 2 0 4 -7 4 -15z m7250 -1052 c0 -26 -16 -12
-18 15 -1 21 0 23 8 12 5 -8 10 -21 10 -27z m-57 -408 c-3 -9 -8 -14 -10 -11
-3 3 -2 9 2 15 9 16 15 13 8 -4z m-13 -45 c5 17 7 6 6 -32 -1 -32 -3 -53 -5
-47 -2 7 -6 7 -12 -2 -5 -8 -7 13 -7 51 1 36 4 52 6 35 5 -30 5 -30 12 -5z
m-7393 -72 c-3 -7 -5 -2 -5 12 0 14 2 19 5 13 2 -7 2 -19 0 -25z m7395 -43 c6
14 6 11 2 -10 -4 -16 -8 -49 -8 -72 -1 -43 -17 -70 -34 -59 -7 4 -7 18 -1 41
6 19 7 40 4 45 -3 6 -3 16 2 23 4 6 8 15 9 20 1 4 3 13 4 20 1 6 5 3 8 -8 l5
-20 9 20z m-26 -182 c-2 -16 -7 -45 -11 -67 -3 -21 -8 -36 -10 -34 -3 2 -1 27
4 56 7 43 6 50 -5 41 -17 -14 -19 2 -2 19 20 20 30 14 24 -15z m-7311 -73 c-3
-5 -12 -10 -18 -10 -7 0 -6 4 3 10 19 12 23 12 15 0z m7275 -4 c0 -3 -4 -8
-10 -11 -5 -3 -10 -1 -10 4 0 6 5 11 10 11 6 0 10 -2 10 -4z m20 -40 c0 -3 -4
-8 -10 -11 -5 -3 -10 -1 -10 4 0 6 5 11 10 11 6 0 10 -2 10 -4z m-37 -31 c-3
-9 -8 -14 -10 -11 -3 3 -2 9 2 15 9 16 15 13 8 -4z m17 -29 c0 -3 -4 -8 -10
-11 -5 -3 -10 -1 -10 4 0 6 5 11 10 11 6 0 10 -2 10 -4z m-39 -67 c3 7 9 -2
16 -19 7 -19 7 -28 1 -24 -7 4 -8 -5 -4 -27 3 -19 3 -28 0 -21 -12 25 -22 11
-19 -25 2 -20 0 -31 -4 -24 -4 6 -15 9 -24 6 -12 -5 -14 -2 -10 15 4 16 8 18
14 8 7 -10 9 -9 9 5 0 9 -6 17 -12 17 -10 0 -10 2 0 9 8 4 14 12 15 17 1 5 6
8 10 6 5 -1 7 5 5 15 -2 10 -10 17 -16 16 -7 -2 -12 3 -12 10 0 20 12 29 21
16 5 -8 8 -8 10 0z m-21 -185 c0 -8 -5 -12 -10 -9 -6 4 -8 11 -5 16 9 14 15
11 15 -7z m-6956 -500 c3 -8 2 -12 -4 -9 -6 3 -10 10 -10 16 0 14 7 11 14 -7z
m1087 -1386 c28 -34 22 -47 -6 -15 -14 15 -25 23 -25 16 0 -7 -3 -10 -6 -6 -6
6 3 27 12 27 3 0 14 -10 25 -22z m134 -88 c-3 -5 8 -16 25 -25 16 -8 30 -18
30 -21 0 -4 -58 23 -69 32 -4 3 8 24 15 24 3 0 3 -4 -1 -10z m3995 -343 c0 -4
-6 -2 -14 5 -8 7 -12 17 -9 22 5 8 23 -12 23 -27z m-41 -23 c-13 -6 -30 -9
-38 -6 -11 4 -9 9 9 24 18 14 26 16 37 6 12 -10 11 -13 -8 -24z m-59 -8 c0
-10 -71 -47 -83 -43 -7 3 -6 6 5 6 9 1 23 7 30 14 7 8 20 16 28 20 21 8 20 8
20 3z m-90 -61 c0 -2 -10 -9 -22 -15 -22 -11 -22 -10 -4 4 21 17 26 19 26 11z
m79 -32 c0 -10 -3 -13 -5 -6 -3 7 -13 9 -22 6 -15 -4 -15 -3 -2 6 22 15 30 14
29 -6z m-115 -18 c-10 -8 -23 -15 -28 -15 -6 0 -1 7 10 15 10 8 23 15 28 15 6
0 1 -7 -10 -15z m18 -32 c-6 -2 -10 -9 -7 -14 4 -5 -1 -6 -9 -3 -20 8 -11 24
12 23 11 0 12 -2 4 -6z m-127 -63 c3 -5 1 -10 -4 -10 -6 0 -11 5 -11 10 0 6 2
10 4 10 3 0 8 -4 11 -10z m-21 -27 c4 -10 4 -14 0 -10 -4 4 -14 1 -22 -6 -13
-9 -14 -9 -8 1 4 7 2 12 -6 12 -9 0 -9 3 2 10 21 14 27 12 34 -7z m-54 -17 c0
-8 -4 -18 -10 -21 -6 -4 -7 1 -4 12 5 16 4 16 -8 2 -7 -9 -19 -14 -25 -12 -7
3 -13 0 -13 -6 0 -6 6 -11 13 -12 6 0 -1 -5 -16 -11 -21 -7 -32 -7 -40 1 -9 9
-7 10 7 5 13 -5 17 -4 12 4 -4 7 8 19 31 31 48 24 53 24 53 7z m-121 -77 c-8
-5 -19 -9 -26 -9 -18 0 -25 17 -11 26 6 4 14 2 16 -4 6 -19 22 -3 16 16 -5 14
-3 14 6 -2 10 -15 9 -20 -1 -27z m-55 -8 c4 -5 -3 -7 -14 -4 -23 6 -26 13 -6
13 8 0 17 -4 20 -9z m-44 -17 c0 -9 5 -12 12 -8 7 4 8 3 4 -4 -10 -17 -26 -15
-26 4 0 9 -5 12 -12 8 -7 -4 -8 -3 -4 4 10 17 26 15 26 -4z m-86 -26 c-5 -8 2
-9 27 -5 l34 6 -30 -16 c-20 -11 -30 -12 -33 -4 -2 6 -8 11 -13 11 -6 0 -7 -4
-4 -10 4 -6 -1 -7 -11 -3 -14 5 -13 8 7 19 30 17 32 17 23 2z m-39 -36 c-3 -3
-11 0 -18 7 -9 10 -8 11 6 5 10 -3 15 -9 12 -12z m-198 -58 c-3 -3 -12 -4 -19
-1 -8 3 -5 6 6 6 11 1 17 -2 13 -5z m-1331 -72 c1 -7 0 -8 -3 -2 -3 8 -9 7
-19 -1 -12 -10 -13 -9 -8 5 7 18 26 17 30 -2z m84 -12 c0 -5 -2 -10 -4 -10 -3
0 -8 5 -11 10 -3 6 -1 10 4 10 6 0 11 -4 11 -10z m30 6 c0 -3 -4 -8 -10 -11
-5 -3 -10 -1 -10 4 0 6 5 11 10 11 6 0 10 -2 10 -4z m55 -6 c-3 -5 -12 -10
-18 -10 -7 0 -6 4 3 10 19 12 23 12 15 0z m922 4 c-3 -3 -12 -4 -19 -1 -8 3
-5 6 6 6 11 1 17 -2 13 -5z m-862 -14 c-3 -5 -12 -10 -18 -10 -7 0 -6 4 3 10
19 12 23 12 15 0z m798 -3 c4 -10 -5 -14 -34 -14 -21 0 -39 4 -39 9 0 4 11 6
24 2 13 -3 27 -1 30 5 9 14 13 14 19 -2z"/>
<path d="M5295 9220 c-3 -5 -1 -10 4 -10 6 0 11 5 11 10 0 6 -2 10 -4 10 -3 0
-8 -4 -11 -10z"/>
<path d="M5338 9213 c7 -3 16 -2 19 1 4 3 -2 6 -13 5 -11 0 -14 -3 -6 -6z"/>
<path d="M5270 9200 c0 -6 7 -10 15 -10 8 0 15 2 15 4 0 2 -7 6 -15 10 -8 3
-15 1 -15 -4z"/>
<path d="M5323 9193 c9 -2 25 -2 35 0 9 3 1 5 -18 5 -19 0 -27 -2 -17 -5z"/>
<path d="M3908 8923 c7 -3 16 -2 19 1 4 3 -2 6 -13 5 -11 0 -14 -3 -6 -6z"/>
<path d="M3685 8799 c-11 -17 1 -21 15 -4 8 9 8 15 2 15 -6 0 -14 -5 -17 -11z"/>
<path d="M6740 8756 c0 -2 7 -7 16 -10 8 -3 12 -2 9 4 -6 10 -25 14 -25 6z"/>
<path d="M6865 8720 c-3 -5 -3 -10 2 -11 4 0 16 -2 26 -4 15 -3 16 -1 6 11
-14 16 -25 18 -34 4z"/>
<path d="M3510 8710 c0 -5 5 -10 10 -10 6 0 10 5 10 10 0 6 -4 10 -10 10 -5 0
-10 -4 -10 -10z"/>
<path d="M3481 8701 c-8 -5 -9 -11 -3 -15 5 -3 12 1 16 9 6 17 6 18 -13 6z"/>
<path d="M7091 8557 c2 -1 13 -9 24 -17 19 -14 19 -14 6 3 -7 9 -18 17 -24 17
-6 0 -8 -1 -6 -3z"/>
<path d="M4341 8382 c-72 -148 -145 -245 -335 -442 -105 -109 -217 -235 -266
-300 l-35 -45 45 39 c25 21 83 78 130 126 81 83 85 80 7 -5 -20 -22 -35 -45
-33 -52 3 -6 -2 -17 -10 -23 -8 -7 -14 -9 -14 -5 0 4 -25 -25 -55 -66 -30 -41
-53 -79 -50 -86 2 -7 -8 -22 -23 -33 -15 -12 -20 -18 -12 -14 10 5 8 -1 -5
-17 -34 -40 -58 -78 -140 -218 -153 -264 -233 -460 -276 -676 -13 -70 -30
-124 -45 -147 -26 -40 -16 -54 10 -16 9 12 16 20 16 16 0 -3 -32 -48 -70 -100
-77 -101 -173 -287 -214 -411 -131 -400 -125 -868 16 -1294 104 -317 266 -571
528 -833 132 -133 277 -263 240 -216 -14 18 -14 18 5 8 31 -18 55 -38 55 -47
0 -5 -10 0 -22 11 -12 10 -18 13 -14 6 4 -7 67 -52 139 -101 141 -94 177 -115
137 -82 -14 11 -19 21 -12 21 7 0 11 4 8 9 -3 4 6 6 19 3 14 -2 22 -8 19 -13
-3 -5 -10 -7 -15 -4 -15 10 -10 -2 8 -16 11 -10 14 -10 9 -1 -7 11 4 16 30 13
6 -1 35 -15 65 -32 30 -17 44 -28 32 -26 -13 3 -25 1 -28 -4 -7 -11 40 -23 54
-14 6 3 11 2 11 -3 0 -5 29 -22 65 -37 57 -24 63 -30 52 -44 -10 -14 -10 -14
4 -3 12 9 24 10 43 2 37 -14 41 -13 25 7 -10 11 -1 9 28 -8 24 -13 43 -28 43
-32 0 -5 -6 -5 -12 -1 -10 5 -10 3 0 -7 10 -11 15 -11 20 -2 6 9 15 8 36 -6
15 -10 26 -21 24 -24 -2 -3 1 -9 6 -14 5 -5 6 -3 2 5 -12 20 3 14 72 -32 75
-50 102 -73 119 -101 6 -11 16 -19 23 -17 6 1 9 -2 6 -7 -3 -5 2 -15 11 -22
14 -12 16 -12 9 1 -19 37 119 -118 170 -191 57 -81 73 -94 54 -45 -5 15 -10
43 -10 63 0 40 -20 115 -33 124 -4 3 -10 19 -12 35 -2 16 -4 31 -4 34 -1 3 -6
-2 -11 -10 -8 -11 -9 -8 -4 12 3 15 -1 41 -9 60 -8 18 -20 54 -27 81 -7 26
-17 50 -23 54 -7 4 -8 -1 -4 -13 7 -18 7 -18 -8 0 -8 11 -15 24 -15 29 0 4 -4
6 -9 3 -7 -5 -143 269 -141 287 2 26 -106 189 -218 325 -46 57 -204 228 -351
381 -389 404 -409 426 -494 541 -43 58 -82 105 -87 105 -5 0 -12 4 -17 9 -5 5
-3 6 5 2 19 -11 14 4 -14 41 -14 18 -30 30 -36 27 -7 -4 -8 -2 -4 4 8 14 -12
55 -23 47 -5 -2 -8 3 -7 13 0 9 -5 16 -12 14 -8 -1 -11 1 -8 6 3 5 -8 28 -25
53 -16 24 -27 50 -24 56 2 7 -1 12 -8 10 -7 -1 -11 6 -11 15 1 10 -2 16 -6 13
-15 -9 -127 276 -158 405 -36 148 -45 212 -44 326 0 99 3 117 25 158 25 47 25
47 31 19 3 -15 13 -84 21 -153 27 -217 65 -381 123 -535 87 -230 139 -341 230
-489 123 -200 201 -293 516 -616 143 -146 298 -308 344 -360 47 -52 88 -95 93
-95 4 0 11 -4 16 -9 5 -5 2 -6 -6 -1 -9 5 -12 3 -9 -6 3 -8 11 -13 17 -11 7 1
10 -2 7 -7 -3 -5 10 -29 30 -53 90 -107 242 -367 228 -390 -5 -7 -2 -8 6 -3
10 6 12 4 7 -9 -4 -9 -3 -15 2 -12 4 3 13 -6 20 -20 16 -35 13 -44 -4 -14 -8
14 -14 20 -15 13 0 -7 11 -24 25 -39 28 -30 120 -298 109 -316 -4 -6 -3 -8 3
-5 13 8 20 -19 33 -119 10 -79 29 -132 30 -84 0 20 2 22 10 10 8 -12 10 -10
10 8 0 14 -4 21 -11 16 -8 -4 -10 9 -8 45 2 28 1 51 -2 51 -3 0 -9 42 -13 93
-7 105 -54 372 -92 526 -35 141 -80 267 -181 511 -91 217 -107 287 -68 286 11
-1 26 -8 32 -16 11 -13 14 -13 23 0 8 13 10 12 10 -5 1 -19 1 -19 14 -2 12 15
16 16 27 4 8 -7 20 -12 27 -9 7 2 20 -4 28 -14 9 -11 13 -13 9 -7 -4 9 -1 11
9 7 9 -3 16 -12 16 -20 0 -8 7 -14 15 -14 8 0 15 -8 16 -17 0 -12 2 -13 6 -5
4 10 8 10 19 1 8 -6 14 -17 14 -23 0 -6 9 -17 20 -24 11 -7 20 -19 20 -28 0
-8 4 -12 10 -9 6 3 10 -3 10 -14 0 -12 4 -21 9 -21 5 0 12 -10 15 -22 7 -21 8
-22 15 -4 9 23 48 -277 61 -465 5 -82 5 -214 0 -330 -12 -248 -12 -358 -1
-339 32 56 68 513 59 760 -3 69 -3 108 -1 87 4 -31 7 -36 21 -29 9 5 29 8 45
7 15 -1 27 2 27 7 0 4 5 8 11 8 5 0 7 -4 4 -10 -3 -6 1 -7 9 -4 9 3 16 2 16
-4 0 -6 8 -8 18 -5 13 3 23 -6 35 -33 10 -20 21 -34 24 -30 3 3 0 14 -8 23
-13 16 -12 17 3 5 13 -10 17 -10 21 0 33 79 -73 -301 -157 -567 -51 -162 -105
-405 -113 -508 l-5 -72 20 31 c11 17 23 40 26 52 4 12 12 20 17 17 5 -3 7 0 4
7 -6 15 63 91 75 83 4 -2 22 15 40 38 28 35 29 38 7 18 -15 -14 -27 -19 -27
-12 0 7 -5 9 -12 5 -15 -9 -3 8 61 84 63 76 178 173 196 166 10 -4 14 -1 10 7
-5 15 65 64 90 64 8 0 21 9 30 20 9 11 13 13 9 5 -7 -12 -5 -13 7 -3 9 7 42
27 75 44 32 17 64 37 70 45 6 7 14 11 17 7 4 -3 7 -1 7 6 0 7 5 9 10 6 6 -3
10 -2 10 4 0 8 62 40 279 144 83 40 252 152 322 214 45 40 51 43 35 18 -19
-30 -19 -30 1 -12 11 9 22 15 25 12 3 -3 11 3 19 12 13 16 12 17 -3 4 -10 -7
-18 -9 -18 -3 0 14 28 35 38 28 5 -3 17 1 28 8 14 11 16 17 7 28 -10 11 -8 14
8 15 12 1 17 -3 13 -9 -4 -7 -2 -8 5 -4 6 4 9 11 6 16 -3 5 2 19 12 31 28 36
95 105 89 93 -7 -15 21 -27 29 -13 4 5 10 7 15 4 5 -3 12 0 16 6 5 8 3 9 -6 4
-8 -5 -11 -3 -8 6 3 8 10 13 15 12 6 -1 27 16 48 38 22 21 35 39 30 39 -5 0
-20 -12 -33 -27 l-24 -28 21 31 c21 32 63 73 46 45 -6 -10 -4 -12 4 -7 7 5 10
14 7 22 -3 8 -2 13 2 12 4 -2 19 10 34 25 15 15 25 27 22 27 -3 0 5 10 16 22
11 13 33 43 47 68 14 25 34 54 43 65 23 26 140 255 164 320 9 28 22 59 27 70
27 57 62 196 83 325 56 339 39 670 -49 972 -25 87 -64 183 -65 158 0 -16 -89
154 -95 183 -2 10 -17 35 -32 55 -16 20 -37 49 -46 64 -9 15 -28 37 -41 50
-20 19 -28 45 -46 158 -29 178 -72 324 -170 580 -116 302 -180 550 -180 689 0
31 7 83 15 116 23 94 65 303 65 325 0 35 -20 22 -41 -27 -58 -136 -89 -194
-100 -187 -8 5 -9 3 -5 -5 9 -14 -60 -124 -73 -116 -5 2 -15 -3 -22 -13 -13
-15 -12 -16 4 -3 39 31 12 -10 -54 -83 -111 -120 -222 -201 -584 -427 -407
-255 -621 -447 -847 -764 -92 -130 -129 -194 -223 -388 -91 -190 -131 -296
-175 -461 -16 -59 -31 -110 -33 -112 -2 -2 -50 92 -107 208 -304 627 -370 869
-370 1356 0 338 36 519 166 837 42 105 89 224 105 266 51 141 37 200 -20 81z
m-333 -697 c-12 -25 -26 -45 -31 -45 -4 0 -5 -5 -1 -12 4 -6 3 -8 -2 -5 -12 7
-57 -57 -60 -86 -1 -12 -3 -26 -3 -32 -1 -5 -5 -4 -10 4 -11 17 7 58 50 112
16 20 29 40 29 44 0 8 40 65 46 65 2 0 -6 -20 -18 -45z m-118 -134 c-5 -11 -7
-26 -5 -34 3 -7 0 -19 -8 -25 -12 -10 -14 -8 -12 12 3 25 22 66 31 66 2 0 0
-9 -6 -19z m2289 -328 c-125 -177 -302 -444 -464 -698 -158 -247 -287 -514
-354 -733 -43 -138 -127 -472 -145 -572 -33 -183 -65 -557 -67 -790 l-2 -165
-10 120 c-6 81 -6 201 2 370 19 415 44 547 205 1057 13 43 21 77 18 77 -20 -3
-30 3 -35 21 -3 11 -14 20 -24 20 -11 0 -28 8 -39 18 -10 9 -30 23 -44 30 -49
24 -96 55 -157 103 -35 27 -67 49 -72 49 -5 0 -11 3 -13 8 -1 4 -23 20 -48 37
-25 16 -47 32 -50 36 -21 23 -55 37 -67 28 -29 -25 64 154 141 271 106 161
221 302 337 415 51 50 76 70 55 45 -54 -65 -56 -68 -56 -78 0 -5 15 -16 33
-23 30 -12 156 -94 167 -108 3 -4 37 -31 75 -61 39 -30 72 -58 73 -62 2 -5 9
-8 15 -8 6 0 19 -8 29 -17 11 -9 26 -18 34 -19 10 -2 47 45 100 124 130 196
131 197 248 362 145 204 216 300 221 300 2 0 -45 -71 -106 -157z m430 -133
c11 -54 4 -564 -8 -635 -6 -34 -7 -12 -3 70 10 175 6 314 -17 550 -12 116 -21
215 -20 220 0 10 28 -109 48 -205z m-364 -15 c-25 -254 -90 -504 -194 -734
-28 -63 -107 -218 -175 -345 -202 -376 -240 -463 -290 -661 -34 -137 -44 -257
-52 -635 -3 -179 -10 -356 -14 -395 -5 -40 -7 128 -4 390 5 468 14 606 55 884
21 143 20 181 -1 81 -8 -39 -16 -57 -21 -48 -4 7 -11 9 -15 6 -9 -10 -74 25
-101 54 -24 26 -43 69 -43 100 0 39 126 336 231 543 93 184 209 385 223 385 7
0 0 -50 -10 -74 -5 -13 -4 -17 4 -12 8 5 10 2 6 -8 -3 -9 -2 -16 2 -16 5 0 45
64 89 142 88 156 311 495 320 486 2 -2 -3 -66 -10 -143z m382 -127 c-3 -8 -6
-5 -6 6 -1 11 2 17 5 13 3 -3 4 -12 1 -19z m-40 -610 c-2 -13 -4 -3 -4 22 0
25 2 35 4 23 2 -13 2 -33 0 -45z m474 -76 c63 -169 74 -455 27 -708 -6 -35
-15 -61 -19 -59 -4 3 -5 -5 -1 -17 3 -13 1 -19 -5 -15 -11 7 -28 -41 -18 -51
3 -3 5 3 5 13 0 10 2 16 5 13 4 -3 3 -18 -1 -33 -4 -16 -9 -22 -14 -15 -4 6
-13 -9 -20 -37 -16 -61 -80 -226 -90 -233 -4 -3 -17 -25 -30 -50 -29 -59 -157
-246 -229 -335 -87 -109 -268 -291 -485 -489 -222 -202 -300 -271 -272 -238
11 12 16 22 12 22 -13 0 85 109 277 308 209 217 270 291 382 462 283 432 425
889 429 1377 1 177 7 189 47 85z m-486 -27 c-4 -31 -9 -54 -12 -51 -3 2 -1 30
2 61 4 31 9 54 12 51 3 -2 1 -30 -2 -61z m-18 -102 c-3 -10 -5 -4 -5 12 0 17
2 24 5 18 2 -7 2 -21 0 -30z m-10 -55 c-3 -7 -5 -2 -5 12 0 14 2 19 5 13 2 -7
2 -19 0 -25z m-12 -68 c-4 -23 -9 -39 -11 -37 -3 2 -2 23 2 46 4 23 9 40 11
37 3 -3 2 -23 -2 -46z m-18 -82 c-3 -7 -5 -2 -5 12 0 14 2 19 5 13 2 -7 2 -19
0 -25z m-10 -40 c-3 -8 -6 -5 -6 6 -1 11 2 17 5 13 3 -3 4 -12 1 -19z m-10
-40 c-3 -8 -6 -5 -6 6 -1 11 2 17 5 13 3 -3 4 -12 1 -19z m-20 -70 c-3 -8 -6
-5 -6 6 -1 11 2 17 5 13 3 -3 4 -12 1 -19z m-103 -322 c-9 -26 -18 -45 -20
-43 -2 2 3 25 12 51 9 26 18 45 20 43 2 -2 -3 -25 -12 -51z m1003 -8 c-2 -13
-4 -5 -4 17 -1 22 1 32 4 23 2 -10 2 -28 0 -40z m-1038 -87 c-6 -18 -13 -30
-15 -28 -2 2 1 18 7 36 6 18 13 30 15 28 2 -2 -1 -18 -7 -36z m-2492 7 c-3 -8
-6 -5 -6 6 -1 11 2 17 5 13 3 -3 4 -12 1 -19z m2540 -19 c-5 -17 -3 -18 9 -8
13 11 14 8 7 -17 -4 -16 -8 -41 -8 -56 0 -14 -3 -24 -7 -21 -5 2 -8 -6 -8 -19
0 -22 -25 -96 -55 -163 -100 -224 -147 -321 -216 -449 -113 -210 -199 -347
-212 -339 -7 4 -8 0 -3 -13 5 -14 4 -16 -4 -8 -9 9 -9 17 0 33 6 12 14 20 18
17 4 -2 8 6 8 19 l2 24 -26 -27 c-30 -32 -33 -40 52 133 140 287 290 604 336
713 12 28 26 52 31 52 5 0 5 7 2 17 -4 10 -2 14 4 10 7 -4 22 20 38 58 28 64
43 85 32 44z m-76 -56 c-12 -20 -14 -14 -5 12 4 9 9 14 11 11 3 -2 0 -13 -6
-23z m100 -10 c-12 -20 -14 -14 -5 12 4 9 9 14 11 11 3 -2 0 -13 -6 -23z
m-2524 -45 c-3 -8 -6 -5 -6 6 -1 11 2 17 5 13 3 -3 4 -12 1 -19z m3102 -47
c-6 -18 -13 -30 -15 -28 -2 2 1 18 7 36 6 18 13 30 15 28 2 -2 -1 -18 -7 -36z
m-3070 -33 c11 -34 19 -63 17 -65 -2 -3 -12 20 -21 49 -10 29 -20 59 -23 66
-2 6 -2 12 1 12 3 0 15 -28 26 -62z m3040 -47 c-6 -18 -13 -30 -15 -28 -2 2 1
18 7 36 6 18 13 30 15 28 2 -2 -1 -18 -7 -36z m-723 -8 c-8 -15 -15 -25 -16
-21 0 12 23 58 27 54 3 -2 -2 -17 -11 -33z m-35 -80 c-11 -21 -20 -35 -21 -31
0 12 33 78 38 74 2 -2 -6 -21 -17 -43z m689 -53 c-124 -225 -269 -396 -766
-900 -350 -354 -480 -495 -568 -612 -16 -21 -33 -35 -39 -31 -5 3 -7 1 -3 -5
3 -6 -12 -36 -34 -68 -22 -32 -40 -54 -40 -50 0 20 42 96 50 91 6 -4 8 7 6 24
-2 17 1 28 5 25 8 -5 13 9 10 28 0 4 8 5 19 3 12 -2 17 1 14 9 -5 13 66 117
117 171 15 17 34 43 42 58 26 49 146 175 282 296 513 452 607 549 804 826 43
61 90 134 106 163 16 28 30 51 32 49 2 -2 -15 -37 -37 -77z m-2859 -110 c42
-101 225 -475 283 -578 26 -46 43 -88 40 -94 -4 -6 -3 -8 3 -5 11 7 56 -58 56
-80 0 -7 4 -13 8 -13 4 0 18 -17 30 -37 13 -21 66 -103 119 -183 118 -179 112
-170 107 -170 -3 0 -26 32 -53 70 -48 71 -61 84 -50 53 3 -10 -4 -4 -16 12
-13 17 -40 49 -61 72 -21 23 -36 47 -33 52 8 12 -14 51 -28 51 -5 0 -1 -9 9
-20 10 -11 16 -22 13 -25 -6 -6 -88 97 -88 110 0 4 8 1 18 -6 15 -13 16 -12 3
3 -7 10 -17 16 -21 13 -9 -5 -63 74 -63 92 0 7 -4 10 -9 7 -7 -5 -12 11 -5 19
1 2 -6 11 -16 21 -9 10 -14 22 -11 28 4 6 3 8 -3 5 -5 -3 -26 28 -46 69 -21
42 -32 72 -26 69 14 -10 5 23 -28 90 -14 30 -17 42 -7 30 9 -11 29 -48 45 -82
15 -35 31 -63 33 -63 7 0 -17 54 -102 230 -56 118 -163 374 -161 388 0 9 19
-30 60 -128z m2100 13 c-11 -21 -20 -35 -21 -31 0 12 33 78 38 74 2 -2 -6 -21
-17 -43z m-1584 -65 c-3 -8 -6 -5 -6 6 -1 11 2 17 5 13 3 -3 4 -12 1 -19z
m1524 -61 c-10 -9 -11 -8 -5 6 3 10 9 15 12 12 3 -3 0 -11 -7 -18z m-1514 -9
c-3 -8 -6 -5 -6 6 -1 11 2 17 5 13 3 -3 4 -12 1 -19z m10 -60 c-3 -7 -5 -2 -5
12 0 14 2 19 5 13 2 -7 2 -19 0 -25z m1464 -15 c-12 -20 -14 -14 -5 12 4 9 9
14 11 11 3 -2 0 -13 -6 -23z m-1454 -35 c-3 -8 -6 -5 -6 6 -1 11 2 17 5 13 3
-3 4 -12 1 -19z m10 -50 c-3 -8 -6 -5 -6 6 -1 11 2 17 5 13 3 -3 4 -12 1 -19z
m10 -40 c-3 -8 -6 -5 -6 6 -1 11 2 17 5 13 3 -3 4 -12 1 -19z m-463 -34 c3 -8
2 -12 -4 -9 -6 3 -10 10 -10 16 0 14 7 11 14 -7z m1819 1 c-3 -9 -8 -14 -10
-11 -3 3 -2 9 2 15 9 16 15 13 8 -4z m-1773 -90 c0 -5 -9 5 -20 23 -26 42 -26
56 0 17 11 -16 20 -34 20 -40z m1753 50 c-3 -9 -8 -14 -10 -11 -3 3 -2 9 2 15
9 16 15 13 8 -4z m-1296 -67 c-3 -8 -6 -5 -6 6 -1 11 2 17 5 13 3 -3 4 -12 1
-19z m1256 -13 c-3 -9 -8 -14 -10 -11 -3 3 -2 9 2 15 9 16 15 13 8 -4z m-1193
-160 c0 -5 -5 -3 -10 5 -5 8 -10 20 -10 25 0 6 5 3 10 -5 5 -8 10 -19 10 -25z
m2150 -379 c0 -3 -4 -8 -10 -11 -5 -3 -10 -1 -10 4 0 6 5 11 10 11 6 0 10 -2
10 -4z m-40 -14 c0 -5 -7 -17 -16 -28 -8 -10 -14 -14 -11 -9 2 6 7 18 10 28 7
17 17 23 17 9z m-180 -181 c0 -5 -7 -12 -16 -15 -14 -5 -15 -4 -4 9 14 17 20
19 20 6z m-2669 -218 c26 -18 52 -33 58 -33 6 0 11 -4 11 -10 0 -5 -2 -10 -5
-10 -6 0 -187 120 -200 133 -16 16 86 -44 136 -80z m1357 -705 c-2 -5 -6 -8
-9 -6 -3 2 -13 -3 -22 -11 -18 -15 -24 -2 -7 15 13 13 42 14 38 2z"/>
<path d="M5591 5754 c0 -11 3 -14 6 -6 3 7 2 16 -1 19 -3 4 -6 -2 -5 -13z"/>
<path d="M4400 4046 c0 -2 8 -10 18 -17 15 -13 16 -12 3 4 -13 16 -21 21 -21
13z"/>
<path d="M4520 3914 c0 -5 11 -25 25 -44 14 -19 25 -31 25 -26 0 4 -11 24 -25
44 -14 20 -25 32 -25 26z"/>
<path d="M7277 8430 c10 -11 19 -20 20 -20 7 0 -3 26 -12 32 -20 15 -24 8 -8
-12z"/>
<path d="M2693 7965 c0 -8 4 -12 9 -9 5 3 6 10 3 15 -9 13 -12 11 -12 -6z"/>
<path d="M6524 7933 c-15 -20 -23 -33 -16 -29 13 8 56 66 49 66 -3 0 -17 -17
-33 -37z"/>
<path d="M2159 7293 c-13 -16 -12 -17 4 -4 9 7 17 15 17 17 0 8 -8 3 -21 -13z"/>
<path d="M1570 6195 c-7 -9 -11 -17 -9 -20 3 -2 10 5 17 15 14 24 10 26 -8 5z"/>
<path d="M8862 5580 c0 -14 2 -19 5 -12 2 6 2 18 0 25 -3 6 -5 1 -5 -13z"/>
<path d="M8881 5464 c0 -11 3 -14 6 -6 3 7 2 16 -1 19 -3 4 -6 -2 -5 -13z"/>
<path d="M8873 5420 c-1 -11 2 -20 8 -20 5 0 9 9 9 20 0 11 -4 20 -8 20 -4 0
-8 -9 -9 -20z"/>
<path d="M8873 5335 c-1 -19 3 -32 8 -29 11 6 11 35 1 51 -5 8 -8 -1 -9 -22z"/>
<path d="M4725 4231 c3 -5 1 -12 -5 -16 -5 -3 -10 -12 -10 -18 0 -7 7 -3 15 7
18 23 19 36 4 36 -5 0 -8 -4 -4 -9z"/>
<path d="M8625 4090 c-3 -5 -1 -10 4 -10 6 0 11 5 11 10 0 6 -2 10 -4 10 -3 0
-8 -4 -11 -10z"/>
<path d="M8589 4053 c-12 -16 -12 -17 2 -6 9 7 20 9 24 5 5 -4 5 -1 1 6 -9 16
-11 15 -27 -5z"/>
<path d="M6735 3764 c-18 -24 -32 -64 -17 -49 4 4 7 10 7 14 0 4 8 15 18 25
14 15 23 36 14 36 -1 0 -11 -12 -22 -26z"/>
<path d="M4750 3460 c6 -11 13 -20 16 -20 2 0 0 9 -6 20 -6 11 -13 20 -16 20
-2 0 0 -9 6 -20z"/>
<path d="M4776 3417 c3 -10 9 -15 12 -12 3 3 0 11 -7 18 -10 9 -11 8 -5 -6z"/>
<path d="M4107 3353 c-8 -13 45 -36 70 -30 12 3 8 5 -10 6 -19 1 -26 5 -21 13
5 7 2 9 -9 5 -9 -3 -17 -1 -20 6 -2 8 -5 8 -10 0z"/>
<path d="M4100 3326 c0 -3 14 -12 30 -21 17 -9 30 -13 30 -11 0 3 -13 12 -30
21 -16 9 -30 13 -30 11z"/>
<path d="M4177 3279 c7 -7 15 -10 18 -7 3 3 -2 9 -12 12 -14 6 -15 5 -6 -5z"/>
<path d="M4210 3266 c0 -3 9 -10 20 -16 11 -6 20 -8 20 -6 0 3 -9 10 -20 16
-11 6 -20 8 -20 6z"/>
<path d="M4270 3255 c0 -8 61 -36 70 -33 5 2 -9 11 -30 20 -22 9 -40 15 -40
13z"/>
<path d="M4900 3211 c0 -6 4 -13 10 -16 6 -3 7 1 4 9 -7 18 -14 21 -14 7z"/>
<path d="M2240 3205 c0 -6 8 -17 45 -59 14 -16 25 -33 25 -39 0 -5 6 -7 14 -4
7 3 19 0 25 -6 7 -7 11 -7 11 -1 0 6 -12 16 -26 22 -14 7 -22 17 -19 22 4 6 1
9 -6 8 -7 -2 -22 11 -33 29 -19 29 -36 42 -36 28z"/>
<path d="M4327 3199 c7 -7 15 -10 18 -7 3 3 -2 9 -12 12 -14 6 -15 5 -6 -5z"/>
<path d="M4410 3155 c0 -2 18 -14 40 -25 22 -11 40 -18 40 -15 0 2 -18 14 -40
25 -22 11 -40 18 -40 15z"/>
<path d="M2336 3065 c4 -8 12 -15 20 -15 19 0 18 16 -2 24 -22 9 -24 8 -18 -9z"/>
<path d="M2302 3061 c-11 -7 -11 -9 0 -14 9 -3 15 1 15 9 0 8 -1 14 -1 14 -1
0 -7 -4 -14 -9z"/>
<path d="M2383 3026 c0 -8 6 -12 14 -9 7 3 10 9 7 14 -8 14 -21 11 -21 -5z"/>
<path d="M4705 3000 c10 -11 20 -20 22 -20 2 0 -2 9 -9 20 -7 11 -17 20 -22
20 -5 0 -1 -9 9 -20z"/>
<path d="M5560 2965 c-7 -8 -16 -13 -20 -10 -4 3 -13 -2 -20 -11 -7 -8 -19
-13 -27 -10 -17 7 -142 -116 -167 -164 -4 -8 9 3 28 25 20 22 36 35 36 30 0
-6 -6 -17 -12 -25 -7 -8 20 16 60 54 41 37 84 72 96 77 12 6 27 19 34 30 14
23 10 25 -8 4z m-75 -54 c-3 -6 -11 -11 -17 -11 -6 0 -6 6 2 15 14 17 26 13
15 -4z m-60 -57 c-36 -34 -40 -26 -7 13 15 17 29 27 30 22 2 -6 -8 -21 -23
-35z"/>
<path d="M2460 2950 c6 -11 15 -20 20 -20 6 0 2 9 -7 20 -10 11 -19 20 -21 20
-1 0 2 -9 8 -20z"/>
<path d="M7999 2923 c-13 -16 -12 -17 4 -4 16 13 21 21 13 21 -2 0 -10 -8 -17
-17z"/>
<path d="M2475 2910 c3 -6 13 -10 21 -10 8 0 13 -3 12 -7 -2 -12 13 -43 21
-43 4 0 8 7 8 15 0 8 -6 15 -14 15 -7 0 -12 5 -10 11 1 6 -8 15 -21 20 -15 6
-21 5 -17 -1z"/>
<path d="M2435 2870 c3 -5 8 -10 11 -10 2 0 4 5 4 10 0 6 -5 10 -11 10 -5 0
-7 -4 -4 -10z"/>
<path d="M2550 2831 c0 -5 5 -13 10 -16 6 -3 10 -2 10 4 0 5 -4 13 -10 16 -5
3 -10 2 -10 -4z"/>
<path d="M2580 2802 c0 -5 10 -17 22 -28 l21 -19 -18 28 c-18 28 -25 33 -25
19z"/>
<path d="M2625 2740 c3 -5 11 -10 16 -10 6 0 7 5 4 10 -3 6 -11 10 -16 10 -6
0 -7 -4 -4 -10z"/>
<path d="M2655 2710 c-3 -5 1 -10 10 -10 9 0 13 5 10 10 -3 6 -8 10 -10 10 -2
0 -7 -4 -10 -10z"/>
<path d="M5255 2614 c-20 -43 -38 -89 -40 -103 -4 -17 0 -13 9 10 7 20 28 64
45 99 17 35 29 65 27 68 -3 2 -21 -31 -41 -74z"/>
<path d="M2760 2515 c13 -14 28 -25 33 -25 12 0 -35 50 -47 50 -5 0 1 -11 14
-25z"/>
<path d="M5201 2464 c0 -11 3 -14 6 -6 3 7 2 16 -1 19 -3 4 -6 -2 -5 -13z"/>
<path d="M5191 2424 c0 -11 3 -14 6 -6 3 7 2 16 -1 19 -3 4 -6 -2 -5 -13z"/>
<path d="M7115 2260 c-3 -5 -1 -10 4 -10 6 0 11 5 11 10 0 6 -2 10 -4 10 -3 0
-8 -4 -11 -10z"/>
<path d="M3520 1810 c0 -5 7 -7 15 -4 8 4 15 8 15 10 0 2 -7 4 -15 4 -8 0 -15
-4 -15 -10z"/>
<path d="M6705 1810 c3 -5 8 -10 11 -10 2 0 4 5 4 10 0 6 -5 10 -11 10 -5 0
-7 -4 -4 -10z"/>
<path d="M6580 1755 c-7 -9 -8 -15 -2 -15 5 0 12 7 16 15 3 8 4 15 2 15 -2 0
-9 -7 -16 -15z"/>
<path d="M5835 1510 c3 -5 8 -10 11 -10 2 0 4 5 4 10 0 6 -5 10 -11 10 -5 0
-7 -4 -4 -10z"/>
<path d="M5750 1499 c0 -11 47 -12 54 -1 2 4 -9 8 -25 8 -16 1 -29 -2 -29 -7z"/>
<path d="M5545 1460 c-3 -5 -1 -10 4 -10 6 0 11 5 11 10 0 6 -2 10 -4 10 -3 0
-8 -4 -11 -10z"/>
<path d="M5570 1459 c0 -5 5 -7 10 -4 6 3 10 8 10 11 0 2 -4 4 -10 4 -5 0 -10
-5 -10 -11z"/>
<path d="M4613 1452 c-18 -6 -19 -10 -10 -22 7 -8 23 -16 37 -17 17 -2 20 0 9
5 -9 4 -15 15 -13 25 1 9 2 17 1 16 -1 -1 -12 -4 -24 -7z"/>
<path d="M5490 1456 c0 -2 7 -7 16 -10 8 -3 12 -2 9 4 -6 10 -25 14 -25 6z"/>
<path d="M4545 1441 c-6 -11 13 -26 22 -17 4 3 1 6 -6 6 -7 0 -9 5 -6 10 3 6
4 10 1 10 -3 0 -7 -4 -11 -9z"/>
<path d="M5410 1394 c0 -8 5 -12 10 -9 6 4 8 11 5 16 -9 14 -15 11 -15 -7z"/>
<path d="M6950 1970 c-8 -5 -12 -11 -9 -14 2 -3 11 -1 19 4 8 5 12 11 9 14 -2
3 -11 1 -19 -4z"/>
</g>
</svg>
